<svg width="16" height="16" viewBox="0 0 16 16" fill="none" xmlns="http://www.w3.org/2000/svg">
<path fill-rule="evenodd" clip-rule="evenodd" d="M7.22115 1.75C4.19952 1.75 1.75 4.19952 1.75 7.22115C1.75 10.2428 4.19952 12.6923 7.22115 12.6923C8.73069 12.6923 10.0966 12.0816 11.0871 11.0926C12.0793 10.1018 12.6923 8.73352 12.6923 7.22115C12.6923 4.19952 10.2428 1.75 7.22115 1.75ZM0.75 7.22115C0.75 3.64723 3.64723 0.75 7.22115 0.75C10.7951 0.75 13.6923 3.64723 13.6923 7.22115C13.6923 8.82934 13.1051 10.3011 12.1344 11.4327L15.1032 14.3961C15.2987 14.5912 15.299 14.9078 15.1039 15.1032C14.9088 15.2987 14.5922 15.299 14.3968 15.1039L11.4268 12.1394C10.296 13.1072 8.82655 13.6923 7.22115 13.6923C3.64723 13.6923 0.75 10.7951 0.75 7.22115Z" fill="#999CA0"/>
</svg>
